# xmcd
# 
# Track frame offsets:
#     182
#     17487
#     37907
#     61040
#     85932
#     100502
#     132377
#     159697
#     185772
#     225605
#     248200
#     271420
#     306400
#     331720
# 
# Disc length: 4735
# 
# Revision: 2
# Processed by: cddbd v1.5.2PL0 Copyright (c) Steve Scherf et al.
# Submitted via: BonkEnc v1.0.5
# 
DISCID=b0127d0e
DTITLE=Green Peter - Green and Guitar: The Best of Peter Green 1977-1981
DYEAR=1996
DGENRE=Blues
TTITLE0=In The Skies
TTITLE1=Loser Two Times
TTITLE2=Cryin' Won't Bring You Back
TTITLE3=Last Train To San Antone
TTITLE4=Apostle
TTITLE5=Little Dreamer
TTITLE6=The Clown
TTITLE7=Gotta See Her Tonight
TTITLE8=White Sky (Love That Evil Woman)
TTITLE9=Carry My Love
TTITLE10=Slabo Day
TTITLE11=A Fool No More
TTITLE12=Baby When The Sun Goes Down
TTITLE13=Funky Jam
EXTD=
EXTT0=
EXTT1=
EXTT2=
EXTT3=
EXTT4=
EXTT5=
EXTT6=
EXTT7=
EXTT8=
EXTT9=
EXTT10=
EXTT11=
EXTT12=
EXTT13=
PLAYORDER=
